<svg width="66" height="66" viewBox="0 0 66 66" fill="none" xmlns="http://www.w3.org/2000/svg">
<path d="M32.9999 0C15.2428 0 0.785645 14.7714 0.785645 33C0.785645 51.2286 15.2428 66 32.9999 66C50.7571 66 65.2142 51.2286 65.2142 33C65.2142 14.7714 50.7571 0 32.9999 0ZM40.7785 58.3C40.6214 58.3786 40.4642 58.3786 40.3071 58.3786C39.5999 58.3786 38.8928 57.8286 38.7356 57.1214L37.9499 53.1143C37.8447 52.6403 37.5268 52.2379 37.0924 52.0233L38.3428 41.8C40.6214 40.3071 42.1928 38.0286 42.8214 35.4357L51.7661 31.8134C52.0514 32.1617 52.4863 32.3714 52.9569 32.3714H53.0355L57.1998 32.1357H57.2783C58.1426 32.1357 58.9283 32.9214 58.8498 33.7857C58.1428 45.65 50.7571 55.0786 40.7785 58.3ZM41.7999 34.1786C41.5642 34.2571 41.4071 34.4929 41.3285 34.7286C40.8571 37.1643 39.3642 39.3643 37.2428 40.6214C37.0071 40.7 36.8499 40.9357 36.8499 41.1714L35.5142 51.8571H30.4764L29.1499 41.1714C29.0714 40.9357 28.9928 40.7786 28.7571 40.6214C26.5571 39.3643 25.0642 37.1643 24.5928 34.65C24.5142 34.4143 24.3571 34.1786 24.1214 34.1L14.9242 30.3476L16.282 25.3884L26.5569 26.7929C26.7926 26.7929 27.0283 26.7143 27.1855 26.5571C28.7569 25.0643 30.7998 24.2 32.9998 24.2C35.1998 24.2 37.3212 25.0643 38.8926 26.6357C39.0498 26.7929 39.2069 26.8714 39.4426 26.8714C39.4426 26.8714 39.5212 26.8714 39.5212 26.7929L49.8745 25.3878L51.2357 30.3593L41.7999 34.1786ZM13.1999 32.3714C13.6749 32.3714 14.1136 32.1581 14.3988 31.8041L23.0999 35.3571C23.7285 37.95 25.2999 40.2286 27.5785 41.7214L28.89 51.9946C28.4242 52.2004 28.0815 52.6183 27.9714 53.1143L27.1856 57.1214C27.0285 57.9071 26.3999 58.3786 25.6142 58.3786C25.4571 58.3786 25.2999 58.3786 25.1428 58.3C15.1642 55.0786 7.7785 45.7286 7.14993 33.7071C7.07136 32.7643 7.85707 32.0571 8.72136 32.0571H8.79993L13.1214 32.3714H13.1999ZM50.4428 22.7857C49.987 22.9883 49.6956 23.3871 49.6083 23.8342L39.6785 25.2214C37.7928 23.5714 35.4356 22.6286 32.9999 22.6286C30.4856 22.6286 28.2071 23.5714 26.3214 25.2214L16.4935 23.8279C16.3905 23.3833 16.1175 22.9874 15.7142 22.7857L11.8642 20.9C10.9999 20.5071 10.7642 19.4071 11.2356 18.6214C15.8714 11.3143 23.8856 6.44286 32.9999 6.44286C42.1142 6.44286 50.2071 11.3143 54.7642 18.6214C55.2356 19.4071 54.9214 20.4286 54.1356 20.9L50.4428 22.7857ZM32.9999 4.87143C32.4736 4.87143 31.9498 4.88877 31.4285 4.919V1.61225C31.949 1.58524 32.4729 1.57143 32.9999 1.57143C33.5269 1.57143 34.0508 1.58509 34.5714 1.61225V4.91916C34.0502 4.88892 33.5265 4.87143 32.9999 4.87143ZM32.9999 64.4286C16.1071 64.4286 2.35707 50.3643 2.35707 33C2.35707 16.4509 14.8464 2.89916 30.6428 1.66335V4.9764C22.2125 5.70932 14.5748 10.3493 9.89993 17.7571C9.4285 18.5429 9.27136 19.4071 9.50707 20.2714C9.74279 21.1357 10.3714 21.8429 11.1571 22.2357L15.0071 24.1214L13.2489 30.5426C13.2208 30.6013 13.2021 30.661 13.1926 30.721L8.8785 30.4073C8.79993 30.4073 8.72136 30.4073 8.64279 30.4073C7.84311 30.4073 7.04404 30.744 6.49343 31.2921C6.53241 30.6043 6.59256 29.9165 6.6785 29.2287C6.75707 28.993 6.59993 28.7573 6.36422 28.7573C6.1285 28.6787 5.89279 28.8359 5.89279 29.0716C5.75176 30.2 5.67748 31.3888 5.66306 32.5303C5.51881 32.9297 5.46095 33.3579 5.49993 33.7859C6.28564 46.043 13.8285 56.2573 24.7499 59.793C25.0642 59.8716 25.3785 59.9502 25.6928 59.9502C27.1856 59.9502 28.5214 58.8502 28.7571 57.4359L29.5362 53.4628C29.6125 53.4901 29.6932 53.5073 29.7785 53.5073C29.7785 53.5073 29.8571 53.5073 29.8571 53.4287H36.3785L37.1642 57.4359C37.358 58.3566 37.9114 59.0971 38.6566 59.5301C37.8282 59.7112 36.9894 59.8506 36.1428 59.9502C35.9856 60.0287 35.8285 60.1859 35.8285 60.4216C35.8285 60.5787 36.0642 60.7359 36.2214 60.7359C37.562 60.5827 38.8839 60.3166 40.1871 59.9483C40.201 59.9485 40.2145 59.9502 40.2285 59.9502C40.5428 59.9502 40.8571 59.8716 41.1714 59.793C52.1714 56.2573 59.7142 46.1216 60.4214 33.8644C60.4999 33.0002 60.1856 32.1359 59.5571 31.5073C58.9285 30.8787 58.1428 30.4859 57.2785 30.4859C57.1999 30.4859 57.1214 30.4859 57.0428 30.4859L52.8785 30.7216L51.227 24.69C51.2432 24.6051 51.2451 24.5189 51.2285 24.4359C51.2285 24.3074 51.1926 24.1913 51.1338 24.091L54.7642 22.3144C55.5499 21.9216 56.1785 21.2144 56.4142 20.3502C56.4208 20.3259 56.426 20.3014 56.432 20.277C57.1155 21.592 57.6931 22.9585 58.1428 24.3573C58.2214 24.5144 58.3785 24.593 58.5356 24.593C58.6142 24.593 58.6142 24.593 58.6928 24.593C58.8499 24.5144 59.0071 24.3573 58.9285 24.1216C58.2442 22.1373 57.381 20.2724 56.3392 18.4746C56.2583 18.2481 56.1524 18.0326 56.0214 17.8359C51.4872 10.4227 43.8538 5.71561 35.3571 4.97655V1.66335C51.1535 2.89916 63.6428 16.4509 63.6428 33C63.6428 50.3643 49.8928 64.4286 32.9999 64.4286Z" fill="black"/>
<path d="M36.0641 33.0784C36.0641 31.4284 34.6498 30.0142 32.9998 30.0142C31.3498 30.0142 29.9355 31.4284 29.9355 33.0784C29.9355 34.7284 31.2713 36.1427 32.9998 36.1427C34.7284 36.1427 36.0641 34.7284 36.0641 33.0784ZM32.9998 35.5927C31.6641 35.5927 30.5641 34.4927 30.5641 33.0784C30.5641 31.7427 31.6641 30.5642 32.9998 30.5642C34.3356 30.5642 35.4356 31.6642 35.4356 33.0784C35.4356 34.4927 34.3356 35.5927 32.9998 35.5927Z" fill="black"/>
<path d="M30.8783 36.7712L30.7997 36.6926C30.2497 36.2998 29.5426 36.5355 29.2283 37.0855C28.8354 37.7141 29.0711 38.4212 29.6211 38.7355L29.6997 38.8141C29.9354 38.8926 30.0926 38.9712 30.3283 38.9712C30.7211 38.9712 31.114 38.7355 31.2711 38.4212C31.664 37.7926 31.4283 37.0855 30.8783 36.7712Z" fill="black"/>
<path d="M30.2505 29.4641C30.4862 29.4641 30.7219 29.3856 30.879 29.307L30.9576 29.2284C31.5076 28.8356 31.6647 28.1284 31.3505 27.5784C30.9576 27.0284 30.2505 26.8713 29.7005 27.1856L29.6219 27.2641C29.0719 27.657 28.9147 28.3641 29.229 28.9141C29.4647 29.2284 29.8576 29.4641 30.2505 29.4641Z" fill="black"/>
<path d="M35.1215 29.3071C35.3572 29.3857 35.5143 29.4643 35.7501 29.4643C36.1429 29.4643 36.5358 29.2286 36.6929 28.9143C37.0072 28.2857 36.8501 27.5785 36.3001 27.2643L36.2215 27.1857C35.6715 26.8714 34.9643 27.1071 34.65 27.6571C34.3358 28.2071 34.5715 28.9928 35.1215 29.3071Z" fill="black"/>
<path d="M38.4212 31.6641C37.7927 31.6641 37.2427 32.2141 37.2427 32.8426C37.2427 32.9212 37.2427 32.9998 37.2427 32.9998C37.2427 33.7069 37.7927 34.1784 38.4212 34.1784C39.0498 34.1784 39.5998 33.6284 39.5998 32.9212C39.5998 32.8426 39.5998 32.8426 39.5998 32.8426C39.5998 32.2141 39.0498 31.6641 38.4212 31.6641Z" fill="black"/>
<path d="M27.5785 31.7427C26.9499 31.7427 26.3999 32.2927 26.3999 32.9213V33.0784C26.3999 33.707 26.9499 34.257 27.5785 34.257C28.2856 34.257 28.757 33.707 28.757 32.9998V32.9213C28.757 32.2927 28.207 31.7427 27.5785 31.7427Z" fill="black"/>
<path d="M35.1214 36.6929L35.0428 36.7715C34.4928 37.0858 34.3356 37.7929 34.6499 38.3429C34.8856 38.6572 35.2785 38.8929 35.6714 38.8929C35.9071 38.8929 36.1428 38.8929 36.3785 38.7358C36.9285 38.3429 37.0857 37.6358 36.7714 37.0858C36.3785 36.5358 35.6714 36.3786 35.1214 36.6929Z" fill="black"/>
<path d="M6.99272 25.9284H7.07129C7.22843 25.9284 7.38557 25.7712 7.46415 25.6927L7.54272 25.457C7.62129 25.2998 7.54272 25.0641 7.307 24.9855C7.14986 24.9069 6.91415 24.9855 6.83557 25.2212L6.757 25.457C6.67843 25.6141 6.757 25.8498 6.99272 25.9284Z" fill="black"/>
<path d="M6.52127 28.2071C6.75699 28.2071 6.91413 28.0499 6.91413 27.8142C6.91413 27.5785 6.9927 27.2642 7.07128 26.9499C7.07128 26.7142 6.9927 26.5571 6.75699 26.4785C6.52128 26.4785 6.36413 26.5571 6.28556 26.7928C6.28556 27.1071 6.20699 27.4214 6.12842 27.7357C6.12842 27.9714 6.20699 28.1285 6.52127 28.2071Z" fill="black"/>
<path d="M30.3281 59.9501L29.9352 59.8715C29.6995 59.7929 29.4638 59.9501 29.4638 60.1858C29.3852 60.4215 29.5424 60.6572 29.7781 60.6572L30.2495 60.7358C30.4852 60.7358 30.6424 60.6572 30.6424 60.3429C30.7209 60.1858 30.5638 59.9501 30.3281 59.9501Z" fill="black"/>
<path d="M33.7073 60.1069C33.0787 60.1069 32.4501 60.1069 31.8216 60.1069C31.5859 60.1069 31.4287 60.2641 31.4287 60.4998C31.4287 60.7355 31.5859 60.8926 31.8216 60.8926C32.2144 60.8926 32.6073 60.8926 33.0001 60.8926C33.2358 60.8926 33.4716 60.8926 33.7073 60.8926C33.943 60.8926 34.1001 60.7355 34.1001 60.4998C34.1001 60.2641 33.943 60.1069 33.7073 60.1069Z" fill="black"/>
<path d="M59.4785 25.8503C59.3999 25.6146 59.2428 25.4575 59.0071 25.5361C58.7714 25.6146 58.6142 25.7718 58.6928 26.0075C58.7714 26.3218 58.8499 26.7146 58.9285 27.0289C59.0071 27.1861 59.1642 27.3432 59.3214 27.3432C59.3214 27.3432 59.3214 27.3432 59.3999 27.3432C59.6356 27.2646 59.7928 27.1075 59.7142 26.8718C59.6356 26.5575 59.5571 26.1646 59.4785 25.8503Z" fill="black"/>
</svg>
