<svg width="57" height="57" viewBox="0 0 57 57" fill="none" xmlns="http://www.w3.org/2000/svg">
<g clip-path="url(#clip0)">
<path d="M6.17871 47.5037C5.65547 47.5037 5.23242 47.0807 5.23242 46.5574V8.55C5.23242 3.82969 9.06211 0 13.7824 0H50.8324C51.3557 0 51.7787 0.423047 51.7787 0.946289V38.9426C51.7787 39.4658 51.3557 39.8889 50.8324 39.8889H13.7824C10.1197 39.8889 7.13613 42.8725 7.13613 46.5352C7.13613 47.0807 6.70195 47.5037 6.17871 47.5037ZM13.7824 1.90371C10.1197 1.90371 7.13613 4.8873 7.13613 8.55V41.1803C8.70586 39.2432 11.0994 37.9963 13.7824 37.9963H49.8861V1.90371H13.7824Z" fill="black"/>
<path d="M20.429 47.5034H13.7827C13.2595 47.5034 12.8364 47.0804 12.8364 46.5571C12.8364 46.0339 13.2595 45.6108 13.7827 45.6108H20.429C20.9522 45.6108 21.3753 46.0339 21.3753 46.5571C21.3753 47.0804 20.9522 47.5034 20.429 47.5034Z" fill="black"/>
<path d="M31.8284 47.5034H26.1284C25.6052 47.5034 25.1821 47.0804 25.1821 46.5571C25.1821 46.0339 25.6052 45.6108 26.1284 45.6108H31.8284C32.3517 45.6108 32.7747 46.0339 32.7747 46.5571C32.7747 47.0804 32.3517 47.5034 31.8284 47.5034Z" fill="black"/>
<path d="M50.8323 47.5034H46.0786C45.5554 47.5034 45.1323 47.0804 45.1323 46.5571C45.1323 46.0339 45.5554 45.6108 46.0786 45.6108H50.8323C51.3556 45.6108 51.7786 46.0339 51.7786 46.5571C51.7786 47.0804 51.3556 47.5034 50.8323 47.5034Z" fill="black"/>
<path d="M6.17871 47.5036C5.65547 47.5036 5.23242 47.0806 5.23242 46.5573V8.5499C5.23242 4.25263 8.4498 0.612202 12.7137 0.0778271C12.9809 0.0444287 13.2592 0.122358 13.4596 0.311616C13.66 0.489741 13.7824 0.745796 13.7824 1.02412V39.0204C13.7824 39.4991 13.4262 39.8999 12.9475 39.9667C9.62988 40.3897 7.125 43.2175 7.125 46.5573C7.13613 47.0806 6.70195 47.5036 6.17871 47.5036ZM11.8787 2.18193C9.10664 3.00576 7.125 5.57744 7.125 8.5499V41.1913C8.30508 39.7329 9.96387 38.6642 11.8787 38.2188V2.18193Z" fill="black"/>
<path d="M6.17871 21.8537C5.65547 21.8537 5.23242 21.4307 5.23242 20.9074V15.0738C5.23242 10.7766 8.4498 7.13613 12.7137 6.60175C12.9809 6.56835 13.2592 6.64628 13.4596 6.83554C13.66 7.01367 13.7824 7.26972 13.7824 7.54804V13.3816C13.7824 13.8603 13.4262 14.2611 12.9475 14.3279C9.62988 14.751 7.125 17.5787 7.125 20.9185C7.13613 21.4307 6.70195 21.8537 6.17871 21.8537ZM11.8787 8.70585C9.10664 9.52968 7.125 12.1014 7.125 15.0738V15.5414C8.30508 14.083 9.96387 13.0143 11.8787 12.5689V8.70585Z" fill="black"/>
<path d="M6.17871 37.1169C5.65547 37.1169 5.23242 36.6938 5.23242 36.1706V30.337C5.23242 26.0397 8.4498 22.3993 12.7137 21.8649C12.9809 21.8315 13.2592 21.9095 13.4596 22.0987C13.66 22.2769 13.7824 22.544 13.7824 22.8112V28.6448C13.7824 29.1235 13.4262 29.5243 12.9475 29.5911C9.62988 30.0142 7.125 32.8419 7.125 36.1817C7.13613 36.6938 6.70195 37.1169 6.17871 37.1169ZM11.8787 23.969C9.10664 24.7929 7.125 27.3645 7.125 30.337V30.8046C8.30508 29.3462 9.96387 28.2663 11.8787 27.8321V23.969Z" fill="black"/>
<path d="M26.1286 56.9997C25.8837 56.9997 25.6388 56.8995 25.4606 56.7214L23.2786 54.5393L21.0966 56.7214C20.8294 56.9886 20.4175 57.0776 20.0612 56.9329C19.705 56.7882 19.4712 56.4431 19.4712 56.0534V46.5571C19.4712 46.0339 19.8942 45.6108 20.4175 45.6108H26.1175C26.6407 45.6108 27.0638 46.0339 27.0638 46.5571V56.0534C27.0638 56.4319 26.83 56.7882 26.4737 56.9329C26.3735 56.9774 26.2511 56.9997 26.1286 56.9997ZM23.2786 52.246C23.5235 52.246 23.7685 52.3351 23.9466 52.5243L25.1712 53.7489V47.4923H21.3749V53.7489L22.5995 52.5243C22.7999 52.3462 23.0337 52.246 23.2786 52.246Z" fill="black"/>
<path d="M50.8321 51.2999H26.1284C25.6052 51.2999 25.1821 50.8769 25.1821 50.3536V47.5036H21.3858V50.3536C21.3858 50.8769 20.9628 51.2999 20.4396 51.2999H13.7933C11.1771 51.2999 9.03955 49.1735 9.03955 46.5462C9.03955 43.9188 11.1659 41.7925 13.7933 41.7925H50.8433C51.3665 41.7925 51.7896 42.2155 51.7896 42.7388V50.3425C51.7784 50.8769 51.3554 51.2999 50.8321 51.2999ZM27.0858 49.3962H49.8858V43.6962H13.7821C12.2124 43.6962 10.9321 44.9765 10.9321 46.5462C10.9321 48.1159 12.2124 49.3962 13.7821 49.3962H19.4821V46.5462C19.4821 46.0229 19.9052 45.5999 20.4284 45.5999H26.1284C26.6517 45.5999 27.0747 46.0229 27.0747 46.5462V49.3962H27.0858Z" fill="black"/>
<path d="M50.8325 55.0966H26.1288C25.6056 55.0966 25.1825 54.6735 25.1825 54.1503V47.504H21.3862V54.1503C21.3862 54.6735 20.9632 55.0966 20.4399 55.0966H13.7937C9.07334 55.0966 5.24365 51.2669 5.24365 46.5466C5.24365 41.8263 9.07334 37.9966 13.7937 37.9966H50.8437C51.3669 37.9966 51.7899 38.4196 51.7899 38.9429V54.1392C51.7788 54.6735 51.3558 55.0966 50.8325 55.0966ZM27.0862 53.204H49.8862V39.9003H13.7825C10.1198 39.9003 7.13623 42.8839 7.13623 46.5466C7.13623 50.2093 10.1198 53.1929 13.7825 53.1929H19.4825V46.5466C19.4825 46.0233 19.9056 45.6003 20.4288 45.6003H26.1288C26.6521 45.6003 27.0751 46.0233 27.0751 46.5466V53.204H27.0862Z" fill="black"/>
<path d="M31.8286 34.1997C23.9688 34.1997 17.5786 27.8095 17.5786 19.9497C17.5786 12.0899 23.9688 5.69971 31.8286 5.69971C39.6884 5.69971 46.0786 12.0899 46.0786 19.9497C46.0786 27.8095 39.6884 34.1997 31.8286 34.1997ZM31.8286 7.60342C25.0265 7.60342 19.4823 13.1364 19.4823 19.9497C19.4823 26.763 25.0265 32.296 31.8286 32.296C38.6308 32.296 44.1749 26.7519 44.1749 19.9497C44.1749 13.1476 38.6419 7.60342 31.8286 7.60342Z" fill="black"/>
<path d="M33.7327 27.5534H29.9364C29.4132 27.5534 28.9901 27.1304 28.9901 26.6071V22.8108H25.1938C24.6706 22.8108 24.2476 22.3878 24.2476 21.8646V18.0683C24.2476 17.545 24.6706 17.122 25.1938 17.122H28.9901V13.3257C28.9901 12.8024 29.4132 12.3794 29.9364 12.3794H33.7327C34.256 12.3794 34.679 12.8024 34.679 13.3257V17.122H38.4753C38.9985 17.122 39.4216 17.545 39.4216 18.0683V21.8646C39.4216 22.3878 38.9985 22.8108 38.4753 22.8108H34.679V26.6071C34.679 27.1304 34.256 27.5534 33.7327 27.5534ZM30.8827 25.6497H32.7864V21.8534C32.7864 21.3302 33.2095 20.9071 33.7327 20.9071H37.529V19.0034H33.7327C33.2095 19.0034 32.7864 18.5804 32.7864 18.0571V14.2497H30.8827V18.046C30.8827 18.5692 30.4597 18.9923 29.9364 18.9923H26.1401V20.896H29.9364C30.4597 20.896 30.8827 21.319 30.8827 21.8423V25.6497Z" fill="black"/>
</g>
<defs>
<clipPath id="clip0">
<rect width="57" height="57" fill="white"/>
</clipPath>
</defs>
</svg>
