<svg width="72" height="72" viewBox="0 0 72 72" fill="none" xmlns="http://www.w3.org/2000/svg">
<path d="M18.2578 24.0469H5.64848C2.53392 24.0469 0 26.5808 0 29.6954V42.3046C0 45.4192 2.53392 47.9531 5.64848 47.9531H18.2578C21.3723 47.9531 23.9062 45.4192 23.9062 42.3046V29.6954C23.9062 26.5808 21.3723 24.0469 18.2578 24.0469ZM21.0939 42.3046H21.0938C21.0938 43.8684 19.8215 45.1406 18.2578 45.1406H5.64848C4.08473 45.1406 2.8125 43.8684 2.8125 42.3046V29.6954C2.8125 28.1316 4.08473 26.8594 5.64848 26.8594H6.1875V36.1167C6.18891 37.343 6.57422 38.5087 7.30266 39.4875C7.65281 39.9586 8.07328 40.3706 8.55141 40.7137C9.03516 41.0597 9.56812 41.3256 10.1334 41.5041C10.2712 41.5478 10.4147 41.5702 10.5567 41.5702C11.1742 41.5702 11.7128 41.175 11.8983 40.5873C12.0109 40.2286 11.9784 39.8475 11.8056 39.5144C11.6312 39.1811 11.3387 38.935 10.9801 38.8223C9.79327 38.4469 8.99719 37.36 9.00014 36.1169V26.8594H18.2579C19.8217 26.8594 21.0939 28.1316 21.0939 29.6954V42.3046Z" fill="black"/>
<path d="M42.3046 0H29.6954C26.5808 0 24.0469 2.53392 24.0469 5.64848V18.2578C24.0469 21.3723 26.5808 23.9062 29.6954 23.9062H42.3046C45.4192 23.9062 47.9531 21.3723 47.9531 18.2578V5.64848C47.9531 2.53392 45.4192 0 42.3046 0ZM45.1406 18.2578C45.1406 19.8215 43.8684 21.0938 42.3046 21.0938H29.6954C28.1316 21.0938 26.8594 19.8215 26.8594 18.2578V5.64848C26.8594 4.08473 28.1316 2.8125 29.6954 2.8125H30.2344V12.0698C30.2358 13.2961 30.6211 14.4619 31.3495 15.4406C31.6997 15.9117 32.1202 16.3237 32.5983 16.6669C33.082 17.0128 33.615 17.2787 34.1803 17.4572C34.3181 17.5009 34.4616 17.5233 34.6036 17.5233C35.2211 17.5233 35.7597 17.1281 35.9452 16.5405C36.1786 15.8006 35.7666 15.0089 35.027 14.7755C33.8401 14.4 33.0441 13.3131 33.047 12.07V2.8125H42.3048C43.8684 2.8125 45.1406 4.08473 45.1406 5.64848V18.2578Z" fill="black"/>
<path d="M66.3515 24.1875H53.7422C50.6277 24.1875 48.0938 26.7214 48.0938 29.836V42.4453C48.0938 45.5598 50.6277 48.0938 53.7422 48.0938H66.3515C69.4661 48.0938 72 45.5598 72 42.4453V29.836C72 26.7214 69.4661 24.1875 66.3515 24.1875ZM69.1876 42.4453H69.1875C69.1875 44.009 67.9153 45.2812 66.3515 45.2812H53.7422C52.1785 45.2812 50.9062 44.009 50.9062 42.4453V29.836C50.9062 28.2722 52.1785 27 53.7422 27H54.2812V36.2573C54.2827 37.4836 54.668 38.6494 55.3964 39.6281C55.7466 40.0992 56.167 40.5112 56.6452 40.8544C57.1289 41.2003 57.6619 41.4662 58.2272 41.6447C58.365 41.6884 58.5084 41.7108 58.652 41.7108C59.268 41.7108 59.8065 41.3156 59.992 40.7264C60.1047 40.3692 60.0722 39.9881 59.8994 39.655C59.725 39.3217 59.4325 39.0756 59.0739 38.963C57.887 38.5875 57.0909 37.5006 57.0939 36.2575V27H66.3517C67.9154 27 69.1876 28.2722 69.1876 29.836V42.4453Z" fill="black"/>
<path d="M42.3046 48.0938H29.6954C26.5808 48.0938 24.0469 50.6277 24.0469 53.7422V66.3515C24.0469 69.4661 26.5808 72 29.6954 72H42.3046C45.4192 72 47.9531 69.4661 47.9531 66.3515V53.7422C47.9531 50.6277 45.4192 48.0938 42.3046 48.0938ZM45.1408 66.3515C45.1408 67.9153 43.8684 69.1875 42.3046 69.1875H29.6954C28.1316 69.1875 26.8594 67.9153 26.8594 66.3515V53.7422C26.8594 52.1785 28.1316 50.9062 29.6954 50.9062H30.2344V60.1636C30.2358 61.3898 30.6211 62.5556 31.3495 63.5344C31.6997 64.0055 32.1202 64.4189 32.5983 64.7606C33.082 65.1066 33.615 65.3999 34.1803 65.5784C34.3181 65.6221 34.4616 65.6719 34.6036 65.6719H34.6051C35.2211 65.6719 35.7597 65.2493 35.9452 64.6601C36.0578 64.3029 36.0253 63.908 35.8509 63.5749C35.6781 63.2416 35.3855 62.9817 35.027 62.8691C33.8401 62.4936 33.0441 61.4067 33.047 60.1636V50.9062H42.3048C43.8685 50.9062 45.1408 52.1785 45.1408 53.7422V66.3515Z" fill="black"/>
<path d="M7.59375 20.9533C8.37028 20.9533 9 20.3235 9 19.547V15.1824C9 12.1341 11.4799 9.70326 14.5281 9.70326H16.1519L14.8746 10.9561C14.3255 11.5052 14.3255 12.3834 14.8746 12.9326C15.1493 13.2071 15.5091 13.3383 15.869 13.3383C16.2288 13.3383 16.5887 13.1979 16.8633 12.9234L20.5412 9.24398C20.8049 8.98017 20.9531 8.62186 20.9531 8.24878C20.9531 7.8757 20.8049 7.51767 20.5412 7.254L16.8633 3.57581C16.314 3.02681 15.4239 3.02681 14.8745 3.57581C14.3253 4.12495 14.3253 5.04 14.8745 5.58914L16.1518 6.89076H14.5281C9.92897 6.89076 6.1875 10.5834 6.1875 15.1824V19.547C6.1875 20.3235 6.81722 20.9533 7.59375 20.9533Z" fill="black"/>
<path d="M52.4883 9H56.8529C59.9012 9 62.4376 11.5149 62.4376 14.5631V16.1869L61.1321 14.9096C60.5828 14.3606 59.6784 14.3606 59.1292 14.9096C58.58 15.4588 58.5728 16.3492 59.1221 16.8985L62.7965 20.5764C63.0603 20.8401 63.4161 20.9883 63.7892 20.9883C64.1623 20.9883 64.519 20.8401 64.7827 20.5764L68.4601 16.8985C69.0092 16.3493 69.0088 15.4589 68.4596 14.9096C67.9103 14.3606 67.0485 14.3606 66.4992 14.9096L65.2501 16.1868V14.5631C65.2501 9.96398 61.4519 6.1875 56.8529 6.1875H52.4883C51.7118 6.1875 51.082 6.81722 51.082 7.59375C51.082 8.37028 51.7118 9 52.4883 9Z" fill="black"/>
<path d="M64.4061 51.2925C63.6296 51.2925 62.9999 51.9222 62.9999 52.6987V57.0634C62.9999 60.1116 60.4849 62.5782 57.4367 62.5782H55.8131L57.0904 61.3077C57.6395 60.7585 57.6395 59.8713 57.0904 59.3222C56.5414 58.7735 55.6512 58.7749 55.1015 59.3239L51.4236 63.0025C51.1599 63.2661 51.0117 63.6243 51.0117 63.9972C51.0117 64.3702 51.1599 64.7281 51.4236 64.9919L55.1015 68.6699C55.3762 68.9444 55.736 69.0818 56.0959 69.0818C56.4557 69.0818 56.8156 68.9446 57.0902 68.6701C57.6394 68.1209 57.6394 67.2239 57.0902 66.6746L55.8129 65.3907H57.4367C62.0357 65.3907 65.8124 61.6625 65.8124 57.0634V52.6987C65.8124 51.9222 65.1826 51.2925 64.4061 51.2925Z" fill="black"/>
<path d="M19.4766 63.1408H15.112C12.0638 63.1408 9.56224 60.7309 9.56224 57.6827V56.0589L10.8502 57.3362C11.1249 57.6107 11.4901 57.7481 11.8501 57.7481C12.2101 57.7481 12.5725 57.6107 12.8472 57.3362C13.3964 56.787 13.3978 55.8966 12.8486 55.3473L9.17144 51.6696C8.6223 51.1207 7.73243 51.1204 7.183 51.6696L3.5051 55.3473C2.95596 55.8965 2.95596 56.7869 3.50524 57.3362C4.05452 57.8852 4.93399 57.8855 5.48327 57.3362L6.74974 56.0589V57.6827C6.74974 62.2817 10.513 65.9533 15.112 65.9533H19.4766C20.2531 65.9533 20.8828 65.3235 20.8828 64.547C20.8828 63.7705 20.2531 63.1408 19.4766 63.1408Z" fill="black"/>
<path d="M16.1621 38.9531C15.3859 38.9531 14.7559 39.5845 14.7559 40.3594C14.7559 41.1342 15.3859 41.7656 16.1621 41.7656C16.937 41.7656 17.5684 41.1342 17.5684 40.3594C17.5684 39.5845 16.9368 38.9531 16.1621 38.9531Z" fill="black"/>
<path d="M40.209 14.9062C39.4327 14.9062 38.8027 15.5377 38.8027 16.3125C38.8027 17.0873 39.4327 17.7188 40.209 17.7188C40.9838 17.7188 41.6152 17.0873 41.6152 16.3125C41.6152 15.5377 40.9837 14.9062 40.209 14.9062Z" fill="black"/>
<path d="M64.2559 39.0938C63.4796 39.0938 62.8496 39.7252 62.8496 40.5C62.8496 41.2748 63.4796 41.9062 64.2559 41.9062C65.0307 41.9062 65.6621 41.2748 65.6621 40.5C65.6621 39.7252 65.0306 39.0938 64.2559 39.0938Z" fill="black"/>
<path d="M40.209 63C39.4327 63 38.8027 63.6314 38.8027 64.4062C38.8027 65.1811 39.4327 65.8125 40.209 65.8125C40.9838 65.8125 41.6152 65.1811 41.6152 64.4062C41.6152 63.6314 40.9837 63 40.209 63Z" fill="black"/>
</svg>
