<svg width="78" height="78" viewBox="0 0 78 78" fill="none" xmlns="http://www.w3.org/2000/svg">
<g clip-path="url(#clip0)">
<path d="M77.6653 48.4126L71.7687 42.5159C70.9888 41.7362 69.9521 41.3066 68.8493 41.3066C68.0399 41.3066 67.2666 41.5388 66.6039 41.9701L61.5702 36.9366L63.3153 35.1917C65.176 33.3288 65.176 30.298 63.3141 28.434C62.5111 27.6326 61.4733 27.1513 60.3565 27.0547C60.8379 25.4288 60.4383 23.5942 59.1575 22.3123C58.4098 21.5646 57.4571 21.0955 56.4252 20.957C56.6394 20.4093 56.7514 19.8207 56.7514 19.2148C56.7514 17.9385 56.2542 16.7388 55.3518 15.8373C54.52 15.0055 53.4553 14.5453 52.3656 14.4565C52.8286 12.8406 52.425 11.026 51.1548 9.75456C50.2523 8.85208 49.0521 8.35498 47.7753 8.35498C46.8349 8.35498 45.9362 8.62585 45.167 9.12934L44.8531 8.53277C44.1223 7.14446 42.5876 6.35608 41.033 6.57347L33.8299 7.57742C32.9843 6.82469 31.9063 6.4126 30.7645 6.4126C29.53 6.4126 28.3693 6.89339 27.4959 7.76693C26.6646 8.59919 26.2182 9.67275 26.155 10.7646C25.8355 10.6957 25.5068 10.6593 25.1722 10.6593C23.9378 10.6593 22.7774 11.14 21.9046 12.0128C20.6408 13.2766 20.2648 15.0962 20.7741 16.6918C19.7821 16.811 18.8218 17.249 18.0622 18.0085C16.8739 19.1968 16.4697 20.8769 16.8491 22.4C15.7915 22.4839 14.7575 22.9283 13.9504 23.7353C12.1488 25.5369 12.1488 28.4685 13.9504 30.2702L15.7505 32.0703C15.949 32.2688 16.1619 32.444 16.3847 32.5988C16.5846 33.923 17.11 35.1751 17.9098 36.242L11.3965 42.7563C9.79739 41.7192 7.63243 41.9005 6.23178 43.3013L0.335926 49.1977C-0.385879 49.9197 0.134985 51.1483 1.1438 51.1483C1.43615 51.1483 1.72865 51.0368 1.95168 50.8138L7.8483 44.9172C8.56706 44.1984 9.73645 44.1981 10.4552 44.9172L14.1238 48.5858C14.57 49.0318 15.2935 49.0318 15.7396 48.5858C16.1858 48.1394 16.1858 47.4161 15.7396 46.9699L13.0775 44.3078L20.2768 37.1073C20.723 36.6611 20.7229 35.9377 20.2768 35.4917C19.6857 34.9006 19.2354 34.1922 18.947 33.4199C18.9709 33.4202 18.9948 33.4216 19.0188 33.4216C20.2022 33.4216 21.3854 32.9711 22.2864 32.0703C23.062 31.2948 23.5271 30.2919 23.6212 29.2119C24.0002 29.3108 24.3941 29.3627 24.7961 29.3627C26.0304 29.3627 27.1908 28.8821 28.0636 28.0092C28.8018 27.2709 29.2371 26.3428 29.3702 25.3806C29.8601 25.5541 30.3813 25.6448 30.9163 25.6448C32.1506 25.6448 33.311 25.1641 34.1838 24.2912C35.7785 22.6965 35.9606 20.2171 34.7322 18.4191C35.5551 18.2235 36.3102 17.8049 36.9234 17.1917C36.9376 17.1775 36.9504 17.162 36.9644 17.1477C37.1749 17.1321 37.3859 17.1074 37.5969 17.0706L40.2444 16.6084C40.5708 16.6242 40.893 16.5019 41.1243 16.2613L41.145 16.2406L42.2565 15.1291L45.6373 11.7484C45.6489 11.737 45.6602 11.7253 45.6711 11.7132L46.0138 11.3708C46.4847 10.8997 47.1105 10.6404 47.7759 10.6404C48.4423 10.6404 49.0686 10.8997 49.5392 11.3703C50.5105 12.3427 50.5106 13.9239 49.5396 14.8949L48.5966 15.8378C48.1504 16.284 48.1504 17.0075 48.5966 17.4536C49.043 17.8999 49.7663 17.8998 50.2125 17.4537L50.2163 17.4499C51.1884 16.4822 52.7666 16.4836 53.7371 17.454C54.2077 17.9243 54.467 18.5497 54.467 19.2153C54.467 19.881 54.2077 20.507 53.7368 20.9779L52.409 22.3059C52.4064 22.3085 52.404 22.3109 52.4015 22.3133C51.9559 22.76 51.9565 23.483 52.4029 23.9288C52.8491 24.3744 53.5721 24.3742 54.0184 23.9283L54.0228 23.9239C54.4906 23.457 55.1146 23.1997 55.7805 23.1997C56.447 23.1997 57.0727 23.4583 57.5421 23.9279C58.5134 24.9003 58.5136 26.4815 57.5424 27.4526L56.5598 28.4353C56.1137 28.8813 56.1135 29.6043 56.5595 30.0507C57.0052 30.4968 57.7284 30.4974 58.1749 30.0519C58.6464 29.5815 59.2725 29.3224 59.9378 29.3224C60.6031 29.3224 61.2292 29.5815 61.6994 30.0507C62.6706 31.023 62.6706 32.6051 61.6998 33.5769L59.1598 36.1167C59.1555 36.1208 59.1508 36.1244 59.1467 36.1286C59.1424 36.1329 59.1389 36.1375 59.1348 36.1417L44.4702 50.805C43.4747 51.8005 42.1512 52.3488 40.7437 52.3488C39.3364 52.3488 38.0136 51.8007 37.0185 50.805L36.8113 50.5978C36.3651 50.1517 35.6416 50.1517 35.1955 50.5978L27.2819 58.5114L18.9887 50.2183C18.5425 49.7722 17.819 49.7722 17.373 50.2183C16.9268 50.6647 16.9268 51.388 17.373 51.8342L26.6724 61.1336C27.3911 61.8523 27.3911 63.0217 26.6724 63.7403L20.7754 69.6368C20.3292 70.0831 20.3292 70.8065 20.7754 71.2527C20.9985 71.4757 21.291 71.5872 21.5833 71.5872C21.8757 71.5872 22.1682 71.4757 22.3912 71.2527L28.2878 65.3561C29.6885 63.9554 29.8697 61.7906 28.8329 60.1916L36.0362 52.9883C37.3689 54.0548 39.0116 54.6338 40.7433 54.6338C42.7612 54.6338 44.6585 53.8479 46.0854 52.4209L59.9546 38.5529L64.9243 43.5226L50.7212 57.7258L47.7581 54.7627C47.3119 54.3166 46.5884 54.3166 46.1423 54.7627C45.6961 55.2091 45.6961 55.9324 46.1423 56.3786L49.1694 59.4057C48.7377 60.0687 48.5053 60.8421 48.5053 61.652C48.5053 62.7546 48.9348 63.7913 49.7146 64.5712L55.6113 70.468C56.0576 70.9142 56.781 70.914 57.227 70.468C57.6732 70.0216 57.6732 69.2983 57.227 68.8522L51.3304 62.9553C50.9823 62.6072 50.7905 62.1444 50.7905 61.652C50.7905 61.1596 50.9823 60.6966 51.3304 60.3485L67.5465 44.1325C67.8947 43.7842 68.3576 43.5924 68.8499 43.5924C69.3423 43.5924 69.8053 43.7842 70.1534 44.1325L76.05 50.0291C76.4962 50.4751 77.2197 50.4751 77.6658 50.0291C78.1115 49.5822 78.1115 48.8589 77.6653 48.4126ZM29.1127 9.38254C29.5216 8.97365 30.0559 8.73752 30.6284 8.70461C30.6095 8.72822 30.5891 8.75016 30.5711 8.77453C30.1755 9.30865 30.0148 9.96449 30.1188 10.6208L30.3164 11.8682C30.5816 13.543 31.4876 15.0083 32.8673 15.9941C32.9766 16.0723 33.0883 16.1455 33.2013 16.2162C32.7507 16.1277 32.3363 15.9082 32.0042 15.5755L30.4142 13.9864L29.1071 12.6793C28.2036 11.7678 28.2054 10.2908 29.1127 9.38254ZM20.6706 30.4543C19.7599 31.365 18.2781 31.3651 17.3672 30.4543L15.5671 28.6543C14.6564 27.7435 14.6564 26.2616 15.5671 25.3508C16.4772 24.4405 17.9578 24.4403 18.8685 25.3489L19.9998 26.4802L20.6706 27.151C21.1118 27.5922 21.3548 28.1786 21.3548 28.8026C21.3548 29.4267 21.1118 30.0131 20.6706 30.4543ZM26.4476 26.3932C26.0065 26.8344 25.4199 27.0773 24.7959 27.0773C24.1721 27.0773 23.5854 26.8343 23.1442 26.3931L21.6156 24.8645L20.4863 23.735L20.4825 23.7313L19.6787 22.9276C18.768 22.0167 18.768 20.5349 19.6787 19.624C20.5891 18.7136 22.0702 18.7134 22.9811 19.6231L26.4483 23.0901C27.3582 24.0011 27.3582 25.4827 26.4476 26.3932ZM32.5679 22.6753C32.1267 23.1165 31.54 23.3593 30.9162 23.3593C30.2923 23.3593 29.7057 23.1163 29.2645 22.6751L28.0642 21.475L28.0632 21.4741L24.5976 18.0084C24.5959 18.0067 24.5941 18.0052 24.5924 18.0035L23.5208 16.9319C22.6101 16.0211 22.6101 14.5392 23.5208 13.6284C24.4315 12.7175 25.9134 12.7176 26.8242 13.6285L27.4853 14.2895C27.4892 14.2935 27.4929 14.2978 27.4968 14.3017L28.7502 15.5543L32.5679 19.3719C33.4785 20.2827 33.4785 21.7646 32.5679 22.6753ZM42.6217 11.532L39.7835 14.3689L37.2034 14.8195C36.1416 15.0051 35.0729 14.7619 34.1954 14.1351C33.3179 13.508 32.7417 12.5761 32.5731 11.5109L32.3755 10.2634C32.3662 10.2049 32.3875 10.1612 32.407 10.135C32.4265 10.1086 32.462 10.0756 32.5208 10.0673L41.3487 8.83715C41.4153 8.8277 41.4815 8.82328 41.5475 8.82328C42.0795 8.82328 42.579 9.11822 42.8313 9.5975L43.4261 10.7274L42.6217 11.532Z" fill="black"/>
</g>
<defs>
<clipPath id="clip0">
<rect width="78" height="78" fill="white"/>
</clipPath>
</defs>
</svg>
