<svg width="64" height="64" viewBox="0 0 64 64" fill="none" xmlns="http://www.w3.org/2000/svg">
<path d="M59.2 2.1333H4.8C2.13338 2.1333 0 4.26668 0 6.9333V39.4667V44.2667C0 46.9333 2.13338 49.0667 4.8 49.0667H25.28L23.68 55.4667H23.4666C20.48 55.4667 18.1332 57.8133 18.1332 60.8C18.1332 61.44 18.5599 61.8667 19.1999 61.8667H44.7999C45.4399 61.8667 45.8665 61.44 45.8665 60.8C45.8665 57.8134 43.5199 55.4667 40.5331 55.4667H40.3198L38.7197 49.0667H59.2C61.8666 49.0667 64 46.9333 64 44.2667V39.4667V6.9333C64 4.26655 61.8666 2.1333 59.2 2.1333ZM2.13337 6.9333C2.13337 5.43993 3.30675 4.26668 4.8 4.26668H59.2C60.6934 4.26668 61.8666 5.44005 61.8666 6.9333V38.3999H2.13337V6.9333ZM43.6266 59.7333H20.48C20.9066 58.4533 22.08 57.5999 23.4666 57.5999H24.5333H39.4666H40.64C42.0266 57.5999 43.2 58.4533 43.6266 59.7333ZM38.08 55.4665H25.92L27.52 49.0665H36.48L38.08 55.4665ZM61.8666 44.2665C61.8666 45.7599 60.6933 46.9332 59.2 46.9332H37.3334H26.6667H4.8C3.30663 46.9332 2.13337 45.7598 2.13337 44.2665V40.5332H61.8667V44.2665H61.8666Z" fill="black"/>
<path d="M31.2534 16.7465C31.4667 16.9599 31.68 17.0665 32 17.0665C32.32 17.0665 32.5334 16.9599 32.7466 16.7465L34.1333 15.3599L35.5199 16.7465C35.7333 16.9599 35.9465 17.0665 36.2665 17.0665C36.5865 17.0665 36.7999 16.9599 37.0131 16.7465C37.4398 16.3199 37.4398 15.6799 37.0131 15.2531L35.6265 13.8665L37.0131 12.4799C37.4398 12.0533 37.4398 11.4133 37.0131 10.9865C36.5865 10.5598 35.9465 10.5599 35.5197 10.9865L34.1331 12.3731L32.7465 10.9865C32.3199 10.5599 31.6799 10.5599 31.2531 10.9865C30.8264 11.4131 30.8265 12.0531 31.2531 12.4799L32.6397 13.8665L31.2531 15.2531C30.8266 15.6799 30.8266 16.3199 31.2534 16.7465Z" fill="black"/>
<path d="M57.2797 26.9865C56.8531 26.5598 56.2131 26.5598 55.7863 26.9865L54.3997 28.3732L53.0131 26.9866C52.5864 26.56 51.9464 26.56 51.5197 26.9866C51.0931 27.4132 51.0931 28.0532 51.5197 28.48L52.9063 29.8666L51.5197 31.2532C51.0931 31.6798 51.0931 32.3198 51.5197 32.7466C51.7331 32.96 51.9463 33.0666 52.2663 33.0666C52.5863 33.0666 52.7997 32.96 53.0129 32.7466L54.3997 31.3598L55.7863 32.7465C55.9997 32.9598 56.2129 33.0665 56.5329 33.0665C56.8529 33.0665 57.0663 32.9598 57.2796 32.7465C57.7062 32.3198 57.7062 31.6798 57.2796 31.2531L55.8929 29.8665L57.2796 28.4798C57.7063 28.0532 57.7063 27.4132 57.2797 26.9865Z" fill="black"/>
<path d="M55.3294 10.1026C55.1551 9.78897 54.8252 9.6001 54.4002 9.6001C53.9752 9.6001 53.6454 9.78897 53.4709 10.1026L50.4534 13.1201C50.0268 13.5467 50.0268 14.1867 50.4534 14.6135C50.6668 14.8269 50.8801 14.9335 51.2001 14.9335C51.5201 14.9335 51.7334 14.8269 51.9467 14.6135L53.3333 13.2269V16.0001C53.3333 18.3467 51.4133 20.2667 49.0667 20.2667H39.4667C36.2684 20.2667 33.5991 22.6445 33.1377 25.7194C31.2673 26.171 29.8667 27.8627 29.8667 29.8667C29.8667 32.2134 31.7867 34.1334 34.1333 34.1334C36.4799 34.1334 38.3999 32.2134 38.3999 29.8667C38.3999 27.9235 37.0828 26.274 35.2977 25.764C35.7149 23.8472 37.4296 22.4001 39.4667 22.4001H49.0667C52.5867 22.4001 55.4667 19.5201 55.4667 16.0001V13.2267L56.8533 14.6134C57.0667 14.8267 57.2799 14.9334 57.5999 14.9334C57.9199 14.9334 58.1333 14.8267 58.3466 14.6134C58.7732 14.1867 58.7732 13.5467 58.3466 13.12L55.3294 10.1026ZM36.2668 29.8667C36.2668 31.0401 35.3068 32.0001 34.1334 32.0001C32.9602 32.0001 32.0002 31.0401 32.0002 29.8667C32.0002 28.6934 32.9602 27.7334 34.1336 27.7334C35.3068 27.7335 36.2668 28.6935 36.2668 29.8667Z" fill="black"/>
<path d="M6.40012 11.7335H9.60012C10.2401 11.7335 10.6667 11.3068 10.6667 10.6668C10.6667 10.0268 10.2401 9.6001 9.60012 9.6001H6.40012C5.76012 9.6001 5.3335 10.0267 5.3335 10.6667C5.3335 11.3067 5.76012 11.7335 6.40012 11.7335Z" fill="black"/>
<path d="M24.5331 9.6001H13.8664C13.2264 9.6001 12.7998 10.0267 12.7998 10.6667C12.7998 11.3067 13.2264 11.7333 13.8664 11.7333H24.5331C25.1731 11.7333 25.5997 11.3067 25.5997 10.6667C25.5997 10.0267 25.1731 9.6001 24.5331 9.6001Z" fill="black"/>
<path d="M6.40012 15.9999H11.7335C12.3735 15.9999 12.8001 15.5733 12.8001 14.9333C12.8001 14.2933 12.3735 13.8667 11.7335 13.8667H6.40012C5.76012 13.8667 5.3335 14.2933 5.3335 14.9333C5.3335 15.5733 5.76012 15.9999 6.40012 15.9999Z" fill="black"/>
<path d="M19.2002 15.9999C19.8402 15.9999 20.2668 15.5733 20.2668 14.9333C20.2668 14.2933 19.8402 13.8667 19.2002 13.8667H16.0002C15.3602 13.8667 14.9336 14.2933 14.9336 14.9333C14.9336 15.5733 15.3602 15.9999 16.0002 15.9999H19.2002Z" fill="black"/>
<path d="M24.5332 13.8662H23.4665C22.8265 13.8662 22.3999 14.2928 22.3999 14.9328C22.3999 15.5728 22.8265 15.9995 23.4665 15.9995H24.5332C25.1732 15.9995 25.5998 15.5728 25.5998 14.9328C25.5998 14.2928 25.1732 13.8662 24.5332 13.8662Z" fill="black"/>
<path d="M6.40012 20.2665H9.60012C10.2401 20.2665 10.6667 19.8399 10.6667 19.1999C10.6667 18.5599 10.2401 18.1333 9.60012 18.1333H6.40012C5.76012 18.1333 5.3335 18.5599 5.3335 19.1999C5.3335 19.8399 5.76012 20.2665 6.40012 20.2665Z" fill="black"/>
<path d="M24.5331 18.1333H13.8664C13.2264 18.1333 12.7998 18.5599 12.7998 19.1999C12.7998 19.8399 13.2264 20.2665 13.8664 20.2665H24.5331C25.1731 20.2665 25.5997 19.8399 25.5997 19.1999C25.5997 18.5599 25.1731 18.1333 24.5331 18.1333Z" fill="black"/>
<path d="M6.40012 24.5336H11.7335C12.3735 24.5336 12.8001 24.107 12.8001 23.467C12.8001 22.827 12.3735 22.4004 11.7335 22.4004H6.40012C5.76012 22.4004 5.3335 22.827 5.3335 23.467C5.3335 24.107 5.76012 24.5336 6.40012 24.5336Z" fill="black"/>
<path d="M19.2002 24.5336C19.8402 24.5336 20.2668 24.107 20.2668 23.467C20.2668 22.827 19.8402 22.4004 19.2002 22.4004H16.0002C15.3602 22.4004 14.9336 22.827 14.9336 23.467C14.9336 24.107 15.3602 24.5336 16.0002 24.5336H19.2002Z" fill="black"/>
<path d="M24.5332 22.3999H23.4665C22.8265 22.3999 22.3999 22.8265 22.3999 23.4665C22.3999 24.1065 22.8265 24.5332 23.4665 24.5332H24.5332C25.1732 24.5332 25.5998 24.1065 25.5998 23.4665C25.5998 22.8265 25.1732 22.3999 24.5332 22.3999Z" fill="black"/>
<path d="M6.40012 28.7997H9.60012C10.2401 28.7997 10.6667 28.3731 10.6667 27.7331C10.6667 27.0931 10.2401 26.6665 9.60012 26.6665H6.40012C5.76012 26.6665 5.3335 27.0931 5.3335 27.7331C5.3335 28.3731 5.76012 28.7997 6.40012 28.7997Z" fill="black"/>
<path d="M24.5331 26.6665H13.8664C13.2264 26.6665 12.7998 27.0931 12.7998 27.7331C12.7998 28.3731 13.2264 28.7998 13.8664 28.7998H24.5331C25.1731 28.7998 25.5997 28.3731 25.5997 27.7331C25.5997 27.0933 25.1731 26.6665 24.5331 26.6665Z" fill="black"/>
<path d="M11.7335 30.9336H6.40012C5.76012 30.9336 5.3335 31.3602 5.3335 32.0002C5.3335 32.6402 5.76012 33.0669 6.40012 33.0669H11.7335C12.3735 33.0669 12.8001 32.6402 12.8001 32.0002C12.8001 31.3602 12.3735 30.9336 11.7335 30.9336Z" fill="black"/>
<path d="M19.2002 30.9336H16.0002C15.3602 30.9336 14.9336 31.3602 14.9336 32.0002C14.9336 32.6402 15.3602 33.0669 16.0002 33.0669H19.2002C19.8402 33.0669 20.2668 32.6402 20.2668 32.0002C20.2668 31.3602 19.8402 30.9336 19.2002 30.9336Z" fill="black"/>
<path d="M24.5332 30.9336H23.4665C22.8265 30.9336 22.3999 31.3602 22.3999 32.0002C22.3999 32.6402 22.8265 33.0669 23.4665 33.0669H24.5332C25.1732 33.0669 25.5998 32.6402 25.5998 32.0002C25.5998 31.3602 25.1732 30.9336 24.5332 30.9336Z" fill="black"/>
</svg>
