<svg width="136" height="136" viewBox="0 0 136 136" fill="none" xmlns="http://www.w3.org/2000/svg">
    <path d="M67.9998 45.6093C55.6709 45.6093 45.6096 55.6706 45.6096 67.9995C45.6096 80.3284 55.6709 90.3898 67.9998 90.3898C80.3287 90.3898 90.3901 80.3284 90.3901 67.9995C90.3901 55.6706 80.3287 45.6093 67.9998 45.6093ZM135.154 67.9995C135.154 58.7276 135.238 49.5398 134.717 40.2847C134.196 29.5347 131.744 19.9941 123.883 12.1331C116.005 4.25539 106.481 1.81984 95.7315 1.29914C86.4596 0.778433 77.2717 0.862418 68.0166 0.862418C58.7447 0.862418 49.5569 0.778433 40.3018 1.29914C29.5518 1.81984 20.0111 4.27218 12.1502 12.1331C4.27248 20.0109 1.83693 29.5347 1.31623 40.2847C0.795523 49.5566 0.879508 58.7444 0.879508 67.9995C0.879508 77.2546 0.795523 86.4593 1.31623 95.7144C1.83693 106.464 4.28927 116.005 12.1502 123.866C20.0279 131.744 29.5518 134.179 40.3018 134.7C49.5737 135.221 58.7615 135.137 68.0166 135.137C77.2885 135.137 86.4764 135.221 95.7315 134.7C106.481 134.179 116.022 131.727 123.883 123.866C131.761 115.988 134.196 106.464 134.717 95.7144C135.255 86.4593 135.154 77.2714 135.154 67.9995ZM67.9998 102.45C48.9354 102.45 33.5494 87.064 33.5494 67.9995C33.5494 48.9351 48.9354 33.5491 67.9998 33.5491C87.0643 33.5491 102.45 48.9351 102.45 67.9995C102.45 87.064 87.0643 102.45 67.9998 102.45ZM103.861 40.1839C99.41 40.1839 95.8154 36.5894 95.8154 32.1382C95.8154 27.687 99.41 24.0925 103.861 24.0925C108.312 24.0925 111.907 27.687 111.907 32.1382C111.908 33.1951 111.701 34.242 111.297 35.2187C110.893 36.1955 110.301 37.083 109.553 37.8303C108.806 38.5777 107.918 39.1703 106.942 39.5742C105.965 39.978 104.918 40.1852 103.861 40.1839Z" fill="black"/>
</svg>
