<svg width="21" height="20" viewBox="0 0 21 20" fill="none" xmlns="http://www.w3.org/2000/svg">
<path d="M14.5165 0H6.44651C4.86967 0.00185307 3.35795 0.629143 2.24304 1.74424C1.12813 2.85933 0.5011 4.37115 0.499512 5.948L0.499512 14.018C0.501365 15.5948 1.12865 17.1066 2.24375 18.2215C3.35884 19.3364 4.87066 19.9634 6.44751 19.965H14.5175C16.0944 19.9631 17.6061 19.3359 18.721 18.2208C19.8359 17.1057 20.4629 15.5938 20.4645 14.017V5.947C20.4627 4.37015 19.8354 2.85844 18.7203 1.74353C17.6052 0.628623 16.0934 0.00158794 14.5165 0V0ZM18.4565 14.017C18.4565 14.5344 18.3546 15.0468 18.1566 15.5248C17.9586 16.0028 17.6684 16.4371 17.3025 16.803C16.9367 17.1689 16.5023 17.4591 16.0243 17.6571C15.5463 17.8551 15.0339 17.957 14.5165 17.957H6.44651C5.40173 17.9567 4.39983 17.5415 3.66116 16.8026C2.92248 16.0638 2.50751 15.0618 2.50751 14.017V5.947C2.50778 4.90222 2.923 3.90032 3.66186 3.16165C4.40073 2.42297 5.40273 2.008 6.44751 2.008H14.5175C15.5623 2.00827 16.5642 2.42349 17.3029 3.16235C18.0415 3.90122 18.4565 4.90322 18.4565 5.948V14.018V14.017Z" fill="#FAFAFA"/>
<path d="M14.5165 0H6.44651C4.86967 0.00185307 3.35795 0.629143 2.24304 1.74424C1.12813 2.85933 0.5011 4.37115 0.499512 5.948L0.499512 14.018C0.501365 15.5948 1.12865 17.1066 2.24375 18.2215C3.35884 19.3364 4.87066 19.9634 6.44751 19.965H14.5175C16.0944 19.9631 17.6061 19.3359 18.721 18.2208C19.8359 17.1057 20.4629 15.5938 20.4645 14.017V5.947C20.4627 4.37015 19.8354 2.85844 18.7203 1.74353C17.6052 0.628623 16.0934 0.00158794 14.5165 0V0ZM18.4565 14.017C18.4565 14.5344 18.3546 15.0468 18.1566 15.5248C17.9586 16.0028 17.6684 16.4371 17.3025 16.803C16.9367 17.1689 16.5023 17.4591 16.0243 17.6571C15.5463 17.8551 15.0339 17.957 14.5165 17.957H6.44651C5.40173 17.9567 4.39983 17.5415 3.66116 16.8026C2.92248 16.0638 2.50751 15.0618 2.50751 14.017V5.947C2.50778 4.90222 2.923 3.90032 3.66186 3.16165C4.40073 2.42297 5.40273 2.008 6.44751 2.008H14.5175C15.5623 2.00827 16.5642 2.42349 17.3029 3.16235C18.0415 3.90122 18.4565 4.90322 18.4565 5.948V14.018V14.017Z" fill="url(#paint0_linear)"/>
<path d="M10.4813 4.81934C9.11277 4.82145 7.80087 5.36612 6.83323 6.33394C5.8656 7.30176 5.32119 8.61377 5.31934 9.98234C5.32092 11.3513 5.86536 12.6637 6.83324 13.6317C7.80111 14.5998 9.11342 15.1445 10.4823 15.1463C11.8514 15.1447 13.164 14.6002 14.1321 13.6321C15.1002 12.664 15.6447 11.3514 15.6463 9.98234C15.6442 8.61342 15.0993 7.30122 14.131 6.33353C13.1628 5.36584 11.8503 4.82166 10.4813 4.82034V4.81934ZM10.4813 13.1383C9.64458 13.1383 8.84209 12.8059 8.25041 12.2143C7.65874 11.6226 7.32634 10.8201 7.32634 9.98334C7.32634 9.14658 7.65874 8.34409 8.25041 7.75241C8.84209 7.16074 9.64458 6.82834 10.4813 6.82834C11.3181 6.82834 12.1206 7.16074 12.7123 7.75241C13.3039 8.34409 13.6363 9.14658 13.6363 9.98334C13.6363 10.8201 13.3039 11.6226 12.7123 12.2143C12.1206 12.8059 11.3181 13.1383 10.4813 13.1383Z" fill="#FAFAFA"/>
<path d="M10.4813 4.81934C9.11277 4.82145 7.80087 5.36612 6.83323 6.33394C5.8656 7.30176 5.32119 8.61377 5.31934 9.98234C5.32092 11.3513 5.86536 12.6637 6.83324 13.6317C7.80111 14.5998 9.11342 15.1445 10.4823 15.1463C11.8514 15.1447 13.164 14.6002 14.1321 13.6321C15.1002 12.664 15.6447 11.3514 15.6463 9.98234C15.6442 8.61342 15.0993 7.30122 14.131 6.33353C13.1628 5.36584 11.8503 4.82166 10.4813 4.82034V4.81934ZM10.4813 13.1383C9.64458 13.1383 8.84209 12.8059 8.25041 12.2143C7.65874 11.6226 7.32634 10.8201 7.32634 9.98334C7.32634 9.14658 7.65874 8.34409 8.25041 7.75241C8.84209 7.16074 9.64458 6.82834 10.4813 6.82834C11.3181 6.82834 12.1206 7.16074 12.7123 7.75241C13.3039 8.34409 13.6363 9.14658 13.6363 9.98334C13.6363 10.8201 13.3039 11.6226 12.7123 12.2143C12.1206 12.8059 11.3181 13.1383 10.4813 13.1383Z" fill="url(#paint1_linear)"/>
<path d="M15.6555 6.09509C16.3386 6.09509 16.8925 5.54127 16.8925 4.85809C16.8925 4.17492 16.3386 3.62109 15.6555 3.62109C14.9723 3.62109 14.4185 4.17492 14.4185 4.85809C14.4185 5.54127 14.9723 6.09509 15.6555 6.09509Z" fill="#FAFAFA"/>
<path d="M15.6555 6.09509C16.3386 6.09509 16.8925 5.54127 16.8925 4.85809C16.8925 4.17492 16.3386 3.62109 15.6555 3.62109C14.9723 3.62109 14.4185 4.17492 14.4185 4.85809C14.4185 5.54127 14.9723 6.09509 15.6555 6.09509Z" fill="url(#paint2_linear)"/>
<defs>
<linearGradient id="paint0_linear" x1="10.482" y1="0" x2="10.482" y2="19.965" gradientUnits="userSpaceOnUse">
<stop stop-color="#7732AA"/>
<stop offset="0.526042" stop-color="#D01948"/>
<stop offset="1" stop-color="#F7C703"/>
</linearGradient>
<linearGradient id="paint1_linear" x1="10.4828" y1="4.81934" x2="10.4828" y2="15.1463" gradientUnits="userSpaceOnUse">
<stop stop-color="#7732AA"/>
<stop offset="0.526042" stop-color="#D01948"/>
<stop offset="1" stop-color="#F7C703"/>
</linearGradient>
<linearGradient id="paint2_linear" x1="15.6555" y1="3.62109" x2="15.6555" y2="6.09509" gradientUnits="userSpaceOnUse">
<stop stop-color="#7732AA"/>
<stop offset="0.9375" stop-color="#D01948"/>
<stop offset="1" stop-color="#F7C703"/>
</linearGradient>
</defs>
</svg>
