<svg width="23" height="24" viewBox="0 0 23 24" fill="none" xmlns="http://www.w3.org/2000/svg">
    <path d="M10.8975 0.00195461C8.97248 0.0279546 4.83048 0.343955 2.51348 2.46695C0.793485 4.17695 0.192485 6.69795 0.122485 9.81995C0.0624849 12.93 -0.00751495 18.77 5.62249 20.361V22.781C5.62249 22.781 5.58449 23.751 6.22448 23.951C7.01448 24.201 7.46449 23.452 8.21449 22.652L9.61448 21.072C13.4645 21.392 16.4145 20.653 16.7545 20.543C17.5345 20.293 21.9355 19.732 22.6555 13.891C23.3955 7.85995 22.2955 4.05995 20.3155 2.33995L20.3055 2.33795C19.7055 1.78795 17.3055 0.0379546 11.9355 0.0179546C11.9355 0.0179546 11.5395 -0.00704539 10.8975 0.00195461ZM10.9645 1.69895C11.5095 1.69595 11.8445 1.71895 11.8445 1.71895C16.3845 1.72895 18.5555 3.09895 19.0655 3.55895C20.7355 4.98795 21.5935 8.41496 20.9655 13.451C20.3655 18.331 16.7955 18.641 16.1355 18.851C15.8555 18.941 13.2555 19.581 9.98349 19.371C9.98349 19.371 7.54449 22.312 6.78448 23.072C6.66448 23.202 6.52449 23.242 6.43448 23.222C6.30448 23.192 6.26448 23.032 6.27449 22.812L6.29449 18.793C1.52349 17.473 1.80349 12.491 1.85348 9.89095C1.91348 7.29095 2.40348 5.15895 3.85348 3.71895C5.81048 1.94895 9.32848 1.70895 10.9635 1.69895H10.9645ZM11.3245 4.29895C11.2851 4.29882 11.2461 4.30646 11.2098 4.32143C11.1734 4.33639 11.1403 4.3584 11.1124 4.38618C11.0845 4.41395 11.0624 4.44696 11.0473 4.4833C11.0323 4.51964 11.0245 4.55861 11.0245 4.59795C11.0245 4.67752 11.0561 4.75383 11.1124 4.81009C11.1686 4.86635 11.2449 4.89795 11.3245 4.89795C12.0679 4.88377 12.8068 5.01697 13.4985 5.28988C14.1902 5.56278 14.821 5.96997 15.3545 6.48795C16.4445 7.54795 16.9755 8.96795 16.9955 10.828C16.9955 10.8674 17.0032 10.9064 17.0183 10.9428C17.0334 10.9792 17.0555 11.0122 17.0834 11.0401C17.1112 11.0679 17.1443 11.09 17.1807 11.1051C17.2171 11.1202 17.2561 11.128 17.2955 11.128V11.119C17.375 11.119 17.4514 11.0873 17.5076 11.0311C17.5639 10.9748 17.5955 10.8985 17.5955 10.819C17.6326 9.94424 17.4912 9.07113 17.1801 8.25279C16.8689 7.43446 16.3944 6.68802 15.7855 6.05895C14.5955 4.89895 13.0935 4.29895 11.3235 4.29895H11.3245ZM7.37048 4.98895C7.15782 4.95865 6.94115 5.00093 6.75549 5.10895H6.74348C6.33349 5.34895 5.95549 5.64895 5.59549 6.04895C5.32549 6.36895 5.17449 6.68795 5.13449 6.99795C5.11095 7.17977 5.12803 7.36453 5.18448 7.53895L5.20448 7.54895C5.51271 8.4551 5.9149 9.32651 6.40449 10.149C7.0391 11.3008 7.81879 12.3665 8.72449 13.32L8.75449 13.36L8.79449 13.39L8.82448 13.42L8.85448 13.45C9.81171 14.3579 10.8802 15.1409 12.0345 15.78C13.3545 16.5 14.1565 16.84 14.6365 16.98V16.99C14.7765 17.03 14.9045 17.05 15.0345 17.05C15.4442 17.0201 15.8321 16.8539 16.1365 16.578C16.5265 16.228 16.8365 15.84 17.0665 15.43V15.42C17.2965 14.99 17.2165 14.579 16.8865 14.299C16.2214 13.7172 15.5014 13.2014 14.7365 12.759C14.2265 12.479 13.7065 12.649 13.4965 12.929L13.0465 13.498C12.8165 13.778 12.3965 13.738 12.3965 13.738L12.3845 13.748C9.26449 12.948 8.43449 9.78895 8.43449 9.78895C8.43449 9.78895 8.39449 9.35895 8.68449 9.13895L9.24448 8.68895C9.51449 8.46895 9.70448 7.94895 9.41448 7.43895C8.97264 6.67369 8.45684 5.95358 7.87449 5.28895C7.74781 5.13185 7.56898 5.0254 7.37048 4.98895ZM11.8435 5.87895C11.7639 5.87922 11.6877 5.91108 11.6316 5.96753C11.5756 6.02398 11.5442 6.10039 11.5445 6.17995C11.5448 6.25952 11.5766 6.33572 11.6331 6.39179C11.6895 6.44787 11.7659 6.47922 11.8455 6.47895C12.8462 6.49633 13.7992 6.90989 14.4955 7.62895C14.8096 7.97547 15.0511 8.38142 15.2057 8.82284C15.3602 9.26425 15.4248 9.73217 15.3955 10.199C15.3957 10.2783 15.4275 10.3544 15.4837 10.4104C15.5399 10.4665 15.6161 10.498 15.6955 10.498L15.7055 10.51C15.745 10.51 15.7841 10.5022 15.8205 10.487C15.857 10.4719 15.8901 10.4497 15.918 10.4217C15.9458 10.3938 15.9679 10.3606 15.9829 10.3241C15.998 10.2876 16.0056 10.2484 16.0055 10.209C16.0355 9.01895 15.6655 8.01895 14.9355 7.21895C14.2055 6.41895 13.1855 5.96896 11.8855 5.87895C11.8715 5.87797 11.8575 5.87797 11.8435 5.87895ZM12.3335 7.49795C12.2934 7.49677 12.2534 7.5035 12.2159 7.51777C12.1784 7.53203 12.144 7.55354 12.1148 7.58107C12.0856 7.6086 12.0621 7.64162 12.0457 7.67823C12.0292 7.71484 12.0202 7.75434 12.019 7.79445C12.0178 7.83457 12.0245 7.87453 12.0388 7.91205C12.0531 7.94957 12.0746 7.98391 12.1021 8.01311C12.1296 8.04232 12.1626 8.06581 12.1993 8.08226C12.2359 8.0987 12.2754 8.10777 12.3155 8.10895C13.3055 8.15895 13.7855 8.65895 13.8455 9.68895C13.8481 9.76677 13.8808 9.84053 13.9368 9.89465C13.9928 9.94877 14.0676 9.979 14.1455 9.97895H14.1555C14.1958 9.9777 14.2354 9.96834 14.272 9.95144C14.3086 9.93453 14.3414 9.91042 14.3685 9.88056C14.3955 9.85069 14.4163 9.81567 14.4295 9.7776C14.4428 9.73952 14.4482 9.69917 14.4455 9.65895C14.3755 8.31895 13.6455 7.56796 12.3455 7.49795C12.3415 7.49788 12.3375 7.49788 12.3335 7.49795Z" fill="url(#paint0_linear)"/>
    <defs>
    <linearGradient id="paint0_linear" x1="11.4985" y1="0" x2="11.4985" y2="23.9999" gradientUnits="userSpaceOnUse">
    <stop stop-color="#675DAC"/>
    <stop offset="1" stop-color="#828EFF"/>
    </linearGradient>
    </defs>
</svg>
