<svg width="95" height="95" viewBox="0 0 95 95" fill="none" xmlns="http://www.w3.org/2000/svg">
    <path d="M47.5 0.6875C21.6486 0.6875 0.6875 21.6486 0.6875 47.5C0.6875 73.3514 21.6486 94.3125 47.5 94.3125C73.3514 94.3125 94.3125 73.3514 94.3125 47.5C94.3125 21.6486 73.3514 0.6875 47.5 0.6875ZM62.5573 48.221L39.7362 64.8248C39.6111 64.9147 39.4636 64.9684 39.31 64.9799C39.1564 64.9915 39.0025 64.9604 38.8654 64.8903C38.7283 64.8201 38.6131 64.7134 38.5326 64.5821C38.4521 64.4507 38.4094 64.2997 38.4092 64.1456V30.9589C38.4087 30.8045 38.4509 30.653 38.5312 30.5212C38.6116 30.3894 38.7268 30.2823 38.8643 30.212C39.0017 30.1417 39.1559 30.1108 39.3098 30.1227C39.4637 30.1347 39.6113 30.189 39.7362 30.2797L62.5573 46.873C62.6651 46.9493 62.7531 47.0503 62.8138 47.1676C62.8745 47.2848 62.9062 47.415 62.9062 47.547C62.9062 47.6791 62.8745 47.8092 62.8138 47.9265C62.7531 48.0437 62.6651 48.1448 62.5573 48.221Z" fill="black"/>
</svg>
