<svg width="25" height="24" viewBox="0 0 25 24" fill="none" xmlns="http://www.w3.org/2000/svg">
    <path d="M22.0785 6.85483C22.2185 6.38983 22.0785 6.04883 21.4165 6.04883H19.2235C18.6655 6.04883 18.4105 6.34383 18.2705 6.66783C18.2705 6.66783 17.1555 9.38683 15.5755 11.1498C15.0655 11.6628 14.8325 11.8248 14.5545 11.8248C14.4155 11.8248 14.2135 11.6628 14.2135 11.1978V6.85483C14.2135 6.29683 14.0525 6.04883 13.5875 6.04883H10.1415C9.79351 6.04883 9.58351 6.30683 9.58351 6.55283C9.58351 7.08083 10.3735 7.20283 10.4545 8.69083V11.9188C10.4545 12.6258 10.3275 12.7548 10.0475 12.7548C9.30451 12.7548 7.49651 10.0258 6.42351 6.90183C6.21451 6.29483 6.00351 6.04983 5.44351 6.04983H3.25151C2.62451 6.04983 2.49951 6.34483 2.49951 6.66883C2.49951 7.25083 3.24251 10.1308 5.96051 13.9398C7.77251 16.5408 10.3235 17.9508 12.6475 17.9508C14.0405 17.9508 14.2125 17.6378 14.2125 17.0978V15.1318C14.2125 14.5058 14.3455 14.3798 14.7865 14.3798C15.1105 14.3798 15.6685 14.5438 16.9695 15.7968C18.4555 17.2828 18.7015 17.9498 19.5365 17.9498H21.7285C22.3545 17.9498 22.6675 17.6368 22.4875 17.0188C22.2905 16.4038 21.5805 15.5088 20.6385 14.4498C20.1265 13.8458 19.3615 13.1958 19.1285 12.8708C18.8035 12.4518 18.8975 12.2668 19.1285 11.8948C19.1295 11.8958 21.8005 8.13383 22.0785 6.85483Z" fill="url(#paint0_linear)"/>
    <defs>
    <linearGradient id="paint0_linear" x1="12.5187" y1="6.04883" x2="12.5187" y2="17.9508" gradientUnits="userSpaceOnUse">
    <stop stop-color="#4A76A8"/>
    <stop offset="1" stop-color="#5F9FFF"/>
    </linearGradient>
    </defs>
</svg>
