<svg width="25" height="24" viewBox="0 0 25 24" fill="none" xmlns="http://www.w3.org/2000/svg">
    <path d="M12.0153 2.01158C6.70527 2.26158 2.51627 6.65158 2.53227 11.9286C2.5349 13.4819 2.9068 15.0123 3.61727 16.3936L2.55927 21.4946C2.54636 21.5584 2.54974 21.6244 2.5691 21.6865C2.58846 21.7486 2.62316 21.8048 2.67002 21.85C2.71687 21.8952 2.77435 21.9278 2.83714 21.9448C2.89993 21.9619 2.96601 21.9628 3.02927 21.9476L8.06327 20.7636C9.39655 21.4224 10.8602 21.775 12.3473 21.7956C17.7743 21.8786 22.2983 17.6006 22.4673 12.2156C22.6493 6.44058 17.8503 1.73458 12.0153 2.01058V2.01158ZM18.0223 17.3786C17.2968 18.1015 16.4357 18.6741 15.4885 19.0637C14.5413 19.4532 13.5265 19.652 12.5023 19.6486C11.2973 19.6523 10.108 19.3756 9.02827 18.8406L8.32727 18.4936L5.24027 19.2196L5.89027 16.0886L5.54427 15.4166C4.98337 14.3293 4.69251 13.123 4.69627 11.8996C4.69627 9.82958 5.50827 7.88258 6.98227 6.41958C8.45147 4.96528 10.435 4.14922 12.5023 4.14858C14.5883 4.14858 16.5483 4.95458 18.0223 6.41858C18.7485 7.13421 19.3248 7.98742 19.7174 8.92834C20.1101 9.86926 20.3113 10.879 20.3093 11.8986C20.3093 13.9506 19.4843 15.9286 18.0223 17.3796V17.3786Z" fill="url(#paint0_linear)"/>
    <path d="M17.3414 14.045L15.4104 13.495C15.2858 13.4592 15.1539 13.4576 15.0284 13.4903C14.903 13.5231 14.7887 13.5889 14.6974 13.681L14.2254 14.159C14.1277 14.2579 14.0031 14.3259 13.867 14.3543C13.731 14.3828 13.5895 14.3705 13.4604 14.319C12.5474 13.952 10.6254 12.256 10.1344 11.407C10.0656 11.2871 10.0341 11.1493 10.0441 11.0114C10.0541 10.8735 10.105 10.7418 10.1904 10.633L10.6024 10.103C10.6817 10.0015 10.7319 9.88023 10.7476 9.75234C10.7633 9.62445 10.7438 9.4947 10.6914 9.377L9.87941 7.553C9.83348 7.45105 9.76453 7.36114 9.67799 7.29034C9.59144 7.21954 9.48965 7.16979 9.38063 7.14498C9.2716 7.12017 9.1583 7.12098 9.04964 7.14736C8.94098 7.17374 8.83992 7.22496 8.75441 7.297C8.21541 7.75 7.57541 8.437 7.49841 9.2C7.36141 10.543 7.94141 12.236 10.1354 14.27C12.6704 16.619 14.7014 16.93 16.0224 16.611C16.7724 16.431 17.3724 15.708 17.7494 15.117C17.8097 15.0231 17.8471 14.9164 17.8587 14.8054C17.8702 14.6945 17.8555 14.5823 17.8159 14.4781C17.7762 14.3738 17.7126 14.2803 17.6302 14.2051C17.5478 14.1299 17.4489 14.075 17.3414 14.045Z" fill="url(#paint1_linear)"/>
    <defs>
    <linearGradient id="paint0_linear" x1="12.5023" y1="1.99902" x2="12.5023" y2="21.9584" gradientUnits="userSpaceOnUse">
    <stop stop-color="#40C56F"/>
    <stop offset="1" stop-color="#3EFF97"/>
    </linearGradient>
    <linearGradient id="paint1_linear" x1="12.671" y1="7.12695" x2="12.671" y2="16.7156" gradientUnits="userSpaceOnUse">
    <stop stop-color="#40C56F"/>
    <stop offset="1" stop-color="#3EFF97"/>
    </linearGradient>
    </defs>
</svg>
